<?xml version="1.0" encoding="utf-8"?>
<!-- Generator: Adobe Illustrator 24.2.3, SVG Export Plug-In . SVG Version: 6.00 Build 0)  -->
<svg version="1.1" id="Layer_1" xmlns="http://www.w3.org/2000/svg" xmlns:xlink="http://www.w3.org/1999/xlink" x="0px" y="0px"
	 viewBox="0 0 283.46 283.46" style="enable-background:new 0 0 283.46 283.46;" xml:space="preserve">
<style type="text/css">
	.st0{fill:url(#SVGID_1_);}
	.st1{fill:#681837;}
	.st2{fill:#B23018;}
	.st3{fill:#E77412;}
	.st4{fill:#F8B142;}
	.st5{fill:url(#SVGID_2_);}
	.st6{fill:#DC9331;}
	.st7{fill:#D66B16;}
	.st8{fill:#B9351E;}
	.st9{fill:url(#SVGID_3_);}
	.st10{fill:url(#SVGID_4_);}
</style>
<g>
	<radialGradient id="SVGID_1_" cx="128.8558" cy="137.7334" r="108.5181" gradientUnits="userSpaceOnUse">
		<stop  offset="0.6694" style="stop-color:#7B5E68"/>
		<stop  offset="1" style="stop-color:#532C39"/>
	</radialGradient>
	<path class="st0" d="M235.71,154.37c-0.21-2.26-1.02-11.22-0.85-23.3c0.09-6.09,0.36-8.61,0.42-11.24
		c0.11-4.46-0.38-8.75-1.2-12.76l-97.6,41.41l13.27-107.92c-14.64-1.82-31.88-1.23-49.91,5.19c-3.96,1.41-15.38,5.74-27.94,14.98
		c-8.21,6.04-38.36,29.98-45.29,71.58c-5.99,35.97,6.86,76.28,38.52,101.96c43.93,35.64,97.02,21.15,110.47,17.48
		c12.14-3.32,43.35-13.04,59.67-37.36c7.97-11.88,5.61-31.24,5.61-31.24C240.12,174.16,237.09,168.84,235.71,154.37z"/>
	<path class="st1" d="M229.58,160.78c-7.86-7.42-20.7-15.17-24.5-15.74c1.05-1.32,14.46-13.69,17.83-33.22l-86.42,36.66L149.5,42.68
		c-19.99-2.28-46.38-0.74-71.72,14.74c-27.74,16.94-41.84,39.24-46.51,55.27c-5.24,18.03-9.7,28.88-10.11,33.7
		c-0.22,2.55,0.84,12.98,4.62,28.57c1.78,7.36,6.72,35.29,29.09,56.36c32.49,30.6,75.64,28.22,98.41,26.96
		c19.34-1.07,43.48-2.4,64.03-20.22c4.26-3.69,23.66-20.52,24.26-45.83c0.21-8.86-2.68-16.5-2.68-16.5
		C237.65,172.33,235.32,166.2,229.58,160.78z"/>
	<path class="st2" d="M227.68,162.11c-7.62-7.19-20.53-15.92-24.22-16.47c1.05-1.32,15.14-13.5,17.95-33.2l-84.93,36.03L148.9,47.53
		c-19.23-2.02-44.26-0.29-68.33,14.41c-26.88,16.41-40.55,38.03-45.07,53.56c-5.08,17.47-9.4,27.99-9.8,32.66
		c-0.21,2.47,0.81,12.58,4.47,27.69c1.73,7.13,6.51,34.2,28.19,54.62c31.48,29.65,73.3,27.34,95.37,26.13
		c18.74-1.03,42.14-2.32,62.06-19.6c4.13-3.58,22.93-19.89,23.52-44.42c0.2-8.59-2.59-15.99-2.59-15.99
		C235.5,173.31,233.25,167.37,227.68,162.11z"/>
	<path class="st3" d="M223.59,162.11c-7.25-6.84-17.82-15.14-21.34-15.66c3.54-9.53,14.61-17.67,16.38-32.82l-82.14,34.85
		l11.74-95.47c-18.25-1.86-41.91-0.14-64.67,13.75c-25.59,15.62-38.6,36.19-42.9,50.98c-4.84,16.63-8.95,26.64-9.33,31.09
		c-0.2,2.35,0.78,11.98,4.26,26.35c1.64,6.79,6.2,32.56,26.83,51.99c29.97,28.22,69.77,26.03,90.78,24.87
		c17.84-0.98,40.11-2.21,59.07-18.65c3.93-3.41,21.83-18.93,22.38-42.28c0.19-8.17-2.47-15.22-2.47-15.22
		C231.03,172.77,228.89,167.11,223.59,162.11z"/>
	<path class="st4" d="M219.49,159.86c-7.02-6.39-19.48-10.1-22.88-10.59c0.99-1.19,15.25-14.64,18.1-33.98l-78.22,33.19l11.2-91.08
		c-17.65-1.71-40.48-0.08-62.45,12.85c-24.77,14.58-37.36,33.78-41.52,47.59c-4.68,15.52-8.66,24.87-9.03,29.02
		c-0.19,2.2,0.75,11.18,4.12,24.6c1.59,6.33,6,30.39,25.97,48.53c29,26.34,67.53,24.3,87.86,23.21
		c17.27-0.92,38.82-2.06,57.17-17.41c3.8-3.18,21.13-17.67,21.66-39.46c0.19-7.63-2.39-14.21-2.39-14.21
		C227.97,169.2,224.62,164.53,219.49,159.86z"/>

		<radialGradient id="SVGID_2_" cx="132.5555" cy="155.0222" r="74.4499" gradientTransform="matrix(1 0 0 0.9485 0 7.9814)" gradientUnits="userSpaceOnUse">
		<stop  offset="0.4099" style="stop-color:#FFD14A"/>
		<stop  offset="0.9976" style="stop-color:#FFD354;stop-opacity:0"/>
	</radialGradient>
	<path class="st5" d="M200.11,157.71c-5.44-4.95-6.86-7.86-9.5-8.24c0.78-0.94,8.01-11.72,7.52-27.15l-61.66,26.16l8.63-70.19
		c-13.78-1.44-31.82-0.3-49.16,9.9c-19.21,11.31-28.98,26.21-32.21,36.92c-3.63,12.04-6.72,19.29-7,22.51
		c-0.15,1.7,0.58,8.67,3.2,19.08c1.23,4.91,4.65,23.58,20.15,37.65c22.5,20.44,52.39,18.85,68.16,18.01
		c13.4-0.71,30.12-1.6,44.35-13.51c2.95-2.47,16.39-13.71,16.81-30.62c0.15-5.92-1.85-11.02-1.85-11.02
		C206.7,164.96,204.09,161.34,200.11,157.71z"/>
	<path class="st4" d="M166.59,135.71l-30.1,12.77l2.55-20.76c-30.52-2.61-41.59,18.13-44.6,22.26c-3.19,4.38-6.2,7.73-6.2,7.73
		s9.43,14.33,27.61,18.38s40.03-0.64,48.21-10.09c8.17-9.46,15.04-15.83,15.04-15.83s3.55-1.42-1.45-6.3
		C174.21,140.51,170.33,137.8,166.59,135.71z"/>
	<g>
		<path class="st6" d="M139.37,124.99c-33.45-3.73-45.52,19.1-48.75,23.58c-3.36,4.66-2.31,8.53-2.31,8.53s6.98-6.32,26.01-10.72
			c9.63-2.23,16.61-3.46,22.91-3.94L139.37,124.99z"/>
		<path class="st6" d="M168.9,134.73l-18.29,7.76c1.03,0.08,2.07,0.17,3.14,0.28c13.17,1.34,25.69,5.73,25.69,5.73
			s3.73-1.52-1.51-6.68C175.11,139.04,172,136.69,168.9,134.73z"/>
	</g>
	<path class="st7" d="M163.92,140.93c-1.67-0.72-3.38-1.35-5.11-1.93l-2.06,0.87c2.37,0.41,4.77,1.04,6.8,1.91
		c0.32,0.14,3.08,1.39,3.29,0.91C167.05,142.23,164.07,141,163.92,140.93z"/>
	<path class="st7" d="M109.73,166.91c14.48,4.16,31.19,5.46,44.48-2.91c1.1-0.69-1.66-1.86-2-1.97c-1.24-0.4-3.05-0.78-4.25-0.03
		c-10.77,6.78-24.15,6.37-35.99,2.97c-0.96-0.28-3.44-1-4.25-0.03C106.94,165.91,109.17,166.75,109.73,166.91L109.73,166.91z"/>
	<path class="st8" d="M146.96,155.07c3.56,1.25,7.65,1.6,11.22,0.2c1.14-0.45,2.22-1.06,3.27-1.7c0.42-0.25,0.83-0.51,1.25-0.76
		c0.2-0.12,0.41-0.27,0.63-0.36c-0.54,0.24,0.16-0.07,0.29-0.13c1.3-0.6-0.08-1.56-0.84-1.89c-0.8-0.34-1.66-0.59-2.52-0.66
		c-0.66-0.06-1.48-0.15-2.09,0.13c-0.87,0.4-1.7,0.91-2.51,1.42c-0.42,0.26-0.84,0.52-1.27,0.76c-0.09,0.05-0.44,0.23-0.04,0.02
		c-0.11,0.06-0.22,0.12-0.33,0.17c-0.23,0.12-0.46,0.23-0.69,0.33c-0.48,0.22-0.97,0.41-1.48,0.56c-0.13,0.04-0.26,0.07-0.39,0.11
		c-0.47,0.13,0.52-0.09,0.03-0.01c-0.28,0.05-0.56,0.1-0.84,0.13c-0.47,0.05-0.14-0.03,0.12,0c-0.14-0.02-0.3,0.01-0.45,0.01
		c-0.15,0-0.31-0.01-0.46-0.01c0.96-0.02,0.43,0.02,0.18,0c-0.11-0.01-0.22-0.03-0.33-0.04c0.58,0.1,0.74,0.12,0.47,0.08
		c-0.17-0.04-0.34-0.07-0.51-0.11c-0.34-0.07,0.9,0.26,0.17,0.04c-0.21-0.06-0.42-0.13-0.63-0.21c-0.78-0.27-1.74-0.43-2.57-0.42
		c-0.44,0-1.31,0.03-1.67,0.39C144.05,154.01,146.53,154.92,146.96,155.07L146.96,155.07z"/>
	<path class="st7" d="M128.43,149.8c-2.67-0.07-5.42-0.13-7.99,0.67c-2.29,0.71-4.34,2.16-6.37,3.38c-0.41,0.25-0.06,0.79,0.14,0.99
		c0.45,0.46,1.27,0.79,1.86,0.97c1.28,0.39,3.02,0.77,4.25,0.03c1.1-0.66,2.19-1.33,3.31-1.97c0.34-0.19-0.28,0.14,0.03-0.02
		c0.1-0.05,0.21-0.11,0.31-0.16c0.21-0.11,0.43-0.21,0.64-0.31c0.39-0.18,0.79-0.34,1.2-0.47c0.19-0.06,0.39-0.11,0.58-0.17
		c0.38-0.11-0.54,0.11-0.17,0.04c0.1-0.02,0.21-0.04,0.31-0.06c0.49-0.09,0.98-0.12,1.48-0.18c-0.22,0.03-0.68,0.04-0.2,0.02
		c0.14-0.01,0.27-0.01,0.41-0.02c0.29-0.01,0.58-0.01,0.88-0.01c0.75,0,1.5,0.01,2.25,0.03c0.71,0.02,2.61-0.37,1.54-1.39
		C131.76,150.16,129.87,149.84,128.43,149.8L128.43,149.8z"/>
	<path class="st8" d="M103.03,153.88c2.39-2.55,5.04-4.83,7.92-6.81c1.42-0.98,2.88-1.89,4.39-2.73c0.83-0.46,1.67-0.89,2.53-1.31
		c0.29-0.14,0.88-0.42,0.99-0.47c0.23-0.11,0.89-0.39,1.28-0.56c0.23-0.1,2.31-1.09,0.94-1.02c-1.47,0.07-3.11,0.7-4.45,1.27
		c-7.4,3.17-14.33,7.51-19.87,13.41c-0.28,0.3,0.36,0.26,0.44,0.26c0.65-0.03,1.38-0.23,1.99-0.41c0.83-0.24,1.67-0.51,2.46-0.86
		C102.11,154.44,102.69,154.25,103.03,153.88L103.03,153.88z"/>
</g>
<g>
	<radialGradient id="SVGID_3_" cx="165.2272" cy="123.0505" r="103.8689" gradientUnits="userSpaceOnUse">
		<stop  offset="0.6694" style="stop-color:#7B5E68"/>
		<stop  offset="1" style="stop-color:#532C39"/>
	</radialGradient>
	<path class="st9" d="M160.4,121.27L258,79.86c-2.55-12.35-8.33-21.86-9.8-24.28c-9.76-16.04-23.24-23.89-31.75-28.71
		c-2.53-1.43-19.31-10.59-42.78-13.51L160.4,121.27z"/>
	<path class="st1" d="M160.4,121.27l86.42-36.66c1.66-9.6,0.91-20.91-4.93-33.51c-7.34-15.82-22.57-22.31-35.72-27.64
		c-2.88-1.16-15.42-6.02-32.75-8L160.4,121.27z"/>
	<path class="st2" d="M160.4,121.27l84.93-36.03c1.25-8.71,0.3-18.89-4.98-30.26c-7.12-15.34-21.87-21.62-34.62-26.78
		c-2.85-1.15-15.51-6.05-32.92-7.88L160.4,121.27z"/>
	<path class="st3" d="M160.4,121.27l82.14-34.85c0.85-7.27-0.43-16.15-5.74-27.6c-6.77-14.6-20.82-20.58-32.95-25.49
		c-2.74-1.11-14.94-5.83-31.7-7.54L160.4,121.27z"/>
	<path class="st4" d="M160.4,121.27l78.22-33.19c1.2-8.14,0.39-17.31-4.3-27.05c-6.56-13.63-20.15-19.21-31.89-23.79
		c-2.66-1.04-14.53-5.47-30.83-7.05L160.4,121.27z"/>

		<radialGradient id="SVGID_4_" cx="162.053" cy="122.0908" r="60.9954" gradientTransform="matrix(1 0 0 0.9485 0 6.2859)" gradientUnits="userSpaceOnUse">
		<stop  offset="0.4099" style="stop-color:#FFD14A"/>
		<stop  offset="0.9976" style="stop-color:#FFD354;stop-opacity:0"/>
	</radialGradient>
	<path class="st10" d="M160.4,121.27l61.66-26.16c-0.19-6.1-1.59-12.93-5.07-20.17c-5.09-10.57-15.63-14.9-24.74-18.46
		c-2.02-0.79-10.93-4.12-23.21-5.4L160.4,121.27z"/>
	<path class="st4" d="M160.4,121.27l30.1-12.77c-3.48-1.95-6.83-3.37-9.6-4.25c-6.63-2.12-12.58-3.28-17.95-3.74L160.4,121.27z"/>
	<path class="st6" d="M161.14,115.23c4.57-0.35,8.79-0.3,13.38,0.05l18.29-7.76c-4.53-2.86-9.03-4.87-12.6-6.01
		c-6.18-1.98-11.79-3.16-16.92-3.73L161.14,115.23z"/>
	<path class="st7" d="M167.89,109.29c-1.95,0.01-4.22-0.09-6.02,0.76c-0.18,0.08,0.94,0.8,0.78,0.69c0.67,0.42,1.42,0.76,2.14,1.07
		c0.76,0.33,2.44,1.31,3.29,0.91c1.48-0.69,3.47-0.59,5.07-0.62c1.78-0.03,3.56,0.04,5.32,0.25c0.72,0.09,1.46,0.2,2.2,0.32
		l2.06-0.87c-2.8-0.93-5.66-1.68-8.59-2.08C172.07,109.43,169.98,109.28,167.89,109.29z"/>
</g>
</svg>
